<svg xmlns="http://www.w3.org/2000/svg" xmlns:xlink="http://www.w3.org/1999/xlink" width="53.136" height="90.57600000000001"><path d="M33.41 73.08C44.50 73.08 51.62 65.59 51.62 53.78C51.62 42.41 44.64 34.92 34.06 34.92C28.22 34.92 23.47 36.94 20.59 40.54L20.59 19.80L4.75 19.80L4.75 72.00L19.22 72.00L20.02 66.67C22.68 70.70 27.58 73.08 33.41 73.08ZM27.86 63.14C23.04 63.14 20.16 60.12 20.16 54.94L20.16 52.63C20.16 47.95 23.11 44.93 27.72 44.86C32.40 44.78 35.21 48.17 35.21 53.86C35.21 59.83 32.47 63.14 27.86 63.14Z"/></svg>