<svg xmlns="http://www.w3.org/2000/svg" xmlns:xlink="http://www.w3.org/1999/xlink" width="48.168000000000006" height="90.57600000000001"><path d="M46.58 57.24L46.58 54.79C46.58 42.41 38.59 34.92 24.12 34.92C10.22 34.92 1.30 42.41 1.30 54.14C1.30 66.02 10.15 73.08 24.91 73.08C34.20 73.08 41.69 69.62 45.65 64.01L34.06 58.82C32.11 61.49 28.80 63.00 25.27 63.00C20.23 63.00 16.85 60.84 16.27 57.24ZM31.18 49.54L16.27 49.54C16.63 45.65 19.30 43.27 23.90 43.27C28.51 43.27 31.18 45.79 31.18 49.54Z"/></svg>