<svg xmlns="http://www.w3.org/2000/svg" xmlns:xlink="http://www.w3.org/1999/xlink" width="61.20000000000001" height="90.57600000000001"><path d="M26.78 73.44C36.94 73.44 42.84 69.34 45.43 64.37L45.94 72.00L57.96 72.00L57.96 42.55L29.09 42.55L29.09 53.14L42.70 53.14L42.70 53.78C42.48 57.82 37.80 61.70 31.03 61.70C22.82 61.70 18.43 56.16 18.43 46.66C18.43 37.01 22.82 31.25 30.89 31.25C36.50 31.25 39.82 34.13 41.04 38.74L58.18 35.64C55.73 25.42 45.43 19.44 31.03 19.44C12.74 19.44 1.30 30.74 1.30 46.87C1.30 62.86 10.80 73.44 26.78 73.44Z"/></svg>