<svg xmlns="http://www.w3.org/2000/svg" xmlns:xlink="http://www.w3.org/1999/xlink" width="52.776" height="90.57600000000001"><path d="M32.54 66.67L32.54 86.04L48.38 86.04L48.38 36.00L33.55 36.00L33.12 41.26C30.46 37.01 25.49 34.92 19.58 34.92C8.57 34.92 1.51 42.41 1.51 53.93C1.51 65.45 8.64 73.08 19.15 73.08C25.20 73.08 29.74 70.70 32.54 66.67ZM25.27 63.14C20.59 63.14 17.64 59.54 17.64 53.71L17.64 53.64C17.64 48.02 20.30 44.78 25.20 44.78C29.74 44.78 32.54 47.74 32.54 52.49L32.54 55.01C32.54 59.98 29.81 63.14 25.27 63.14Z"/></svg>