<svg xmlns="http://www.w3.org/2000/svg" xmlns:xlink="http://www.w3.org/1999/xlink" width="52.992000000000004" height="90.57600000000001"><path d="M25.92 73.44C41.90 73.44 51.62 66.89 51.62 55.73C51.62 46.66 46.73 42.12 34.92 40.25L25.13 38.74C19.94 37.80 18.29 36.79 18.29 34.56C18.29 32.33 21.10 31.03 25.99 31.03C32.33 31.03 38.74 33.48 42.55 37.30L51.77 27.14C45.58 21.96 36.72 19.44 27.07 19.44C11.88 19.44 2.88 25.49 2.88 35.50C2.88 44.57 8.42 49.75 19.58 51.62L29.74 53.21C34.27 54.00 35.64 54.94 35.64 57.24C35.64 59.98 32.54 61.49 26.71 61.49C19.73 61.49 13.61 58.39 9.50 53.86L-1.37 63.58C4.03 69.55 14.40 73.44 25.92 73.44Z"/></svg>