<svg xmlns="http://www.w3.org/2000/svg" xmlns:xlink="http://www.w3.org/1999/xlink" width="44.496" height="90.57600000000001"><path d="M23.26 73.08C36.36 73.08 43.42 68.47 43.42 60.34C43.42 53.71 39.60 50.11 30.31 48.96L19.80 47.74C17.21 47.30 16.49 46.94 16.49 45.94C16.49 44.71 17.86 44.28 21.67 44.28C27.94 44.28 32.90 45.36 37.51 47.81L43.27 39.74C38.02 36.50 30.82 34.92 22.82 34.92C9.58 34.92 2.52 39.17 2.52 46.87C2.52 53.50 6.84 57.24 16.34 58.46L25.27 59.54C28.94 59.98 29.66 60.41 29.66 61.63C29.66 62.93 28.15 63.50 23.98 63.50C16.49 63.50 11.30 61.92 7.06 58.75L0 66.24C5.47 70.85 13.54 73.08 23.26 73.08Z"/></svg>