<svg xmlns="http://www.w3.org/2000/svg" xmlns:xlink="http://www.w3.org/1999/xlink" width="83.66400000000002" height="90.57600000000001"><path d="M1.08 20.88L15.48 72.00L33.70 72.00L41.04 41.47C41.33 40.03 41.54 38.52 41.69 36.79L41.98 36.79C42.05 38.52 42.34 40.03 42.62 41.47L49.97 72.00L68.18 72.00L82.58 20.88L66.02 20.88L59.54 49.61C59.18 51.41 58.90 53.14 58.82 54.86L58.54 54.86C58.46 53.14 58.03 51.34 57.60 49.61L50.26 20.88L33.34 20.88L26.06 49.61C25.56 51.34 25.20 53.14 25.13 54.86L24.84 54.86C24.77 53.14 24.48 51.41 24.12 49.61L17.64 20.88Z"/></svg>