<svg xmlns="http://www.w3.org/2000/svg" xmlns:xlink="http://www.w3.org/1999/xlink" viewBox="0 0 50 91" width="50" height="91"><path d="M16.56 73.08C23.47 73.08 29.09 70.49 31.03 66.38C31.03 68.33 31.25 70.49 31.54 72.00L47.02 72.00C46.58 69.91 46.30 66.31 46.30 62.57L46.30 50.62C46.30 39.96 39.89 34.92 25.06 34.92C12.38 34.92 3.82 39.82 2.81 48.31L18.94 48.31C19.30 45.50 21.38 43.99 24.98 43.99C28.30 43.99 30.31 45.29 30.31 48.10L30.31 49.46L17.57 50.69C11.74 51.34 7.99 52.42 5.54 54.22C3.02 56.02 1.80 58.61 1.80 61.99C1.80 68.83 7.34 73.08 16.56 73.08ZM22.97 64.22C19.87 64.22 17.93 62.86 17.93 60.70C17.93 58.61 19.73 57.38 23.76 56.81L30.67 56.02L30.67 58.39C30.67 61.85 27.58 64.22 22.97 64.22Z"/></svg>