<svg xmlns="http://www.w3.org/2000/svg" xmlns:xlink="http://www.w3.org/1999/xlink" width="57.96000000000001" height="90.57600000000001"><path d="M45.00 45.07C51.62 43.56 55.01 39.17 55.01 33.70C55.01 25.70 48.82 20.88 37.22 20.88L4.90 20.88L4.90 72.00L37.66 72.00C50.26 72.00 56.23 65.52 56.23 57.31C56.23 50.54 52.27 46.15 45.00 45.07ZM21.31 31.54L31.97 31.54C35.78 31.54 37.66 33.34 37.66 36.14C37.66 39.02 35.78 41.04 31.97 41.04L21.31 41.04ZM32.62 61.34L21.31 61.34L21.31 50.83L32.62 50.83C36.58 50.83 38.88 52.78 38.88 55.94C38.88 59.04 36.79 61.34 32.62 61.34Z"/></svg>