<svg xmlns="http://www.w3.org/2000/svg" xmlns:xlink="http://www.w3.org/1999/xlink" width="53.136" height="90.57600000000001"><path d="M19.01 73.08C25.42 73.08 30.67 70.20 33.19 65.74L33.19 72.00L48.38 72.00L48.38 19.80L32.54 19.80L32.54 40.46C29.95 36.86 25.56 34.92 19.66 34.92C8.78 34.92 1.51 42.48 1.51 54.00C1.51 65.45 8.57 73.08 19.01 73.08ZM25.49 63.14C20.81 63.14 17.86 59.47 17.86 53.78C17.86 48.10 20.59 44.78 25.34 44.78C29.88 44.78 32.83 47.74 32.83 52.78L32.83 55.30C32.83 60.05 29.88 63.14 25.49 63.14Z"/></svg>