<svg xmlns="http://www.w3.org/2000/svg" xmlns:xlink="http://www.w3.org/1999/xlink" width="50.61600000000001" height="90.57600000000001"><path d="M49.61 39.02L49.61 29.52C48.89 29.38 48.24 29.38 47.52 29.38C41.18 29.38 36.94 31.75 35.57 36.29C32.47 35.35 28.66 34.92 24.34 34.92C10.87 34.92 2.95 39.31 2.95 46.94C2.95 51.48 5.69 54.94 10.66 57.02C5.11 58.54 2.02 61.78 2.02 66.10C2.02 69.41 4.18 71.93 7.78 73.22C3.53 74.45 1.37 76.46 1.37 79.20C1.37 84.38 8.71 87.12 22.68 87.12C40.54 87.12 49.46 82.30 49.46 72.86C49.46 65.59 44.64 61.99 34.49 61.92L18.22 61.92C15.55 61.92 14.26 61.13 14.26 59.62C14.26 59.11 14.47 58.68 14.83 58.39C17.64 58.97 20.81 59.33 24.34 59.33C37.66 59.33 45.72 54.65 45.72 46.94C45.72 43.70 44.28 41.04 41.54 39.02C42.62 38.66 43.92 38.52 45.43 38.52C46.87 38.52 48.17 38.74 49.61 39.02ZM24.34 52.34C20.66 52.34 18.50 50.26 18.50 46.94C18.50 43.78 20.66 41.90 24.34 41.90C28.01 41.90 30.17 43.78 30.17 46.94C30.17 50.26 27.94 52.34 24.34 52.34ZM12.96 74.30L33.05 74.30C35.50 74.30 36.58 75.17 36.58 76.75C36.58 79.34 33.34 80.21 23.69 80.21C16.20 80.21 12.46 79.06 12.46 76.18C12.46 75.46 12.60 74.88 12.96 74.30Z"/></svg>