<svg xmlns="http://www.w3.org/2000/svg" xmlns:xlink="http://www.w3.org/1999/xlink" width="75.60000000000001" height="90.57600000000001"><path d="M4.90 20.88L4.90 72.00L18.86 72.00L18.86 41.47C18.86 38.88 18.79 36.07 18.43 33.55L18.65 33.55C18.94 35.50 19.66 38.09 20.45 40.46L30.17 72.00L44.42 72.00L54.07 40.39C54.79 38.23 55.73 35.21 55.94 33.48L56.23 33.48C55.87 36.29 55.66 39.02 55.66 41.47L55.66 72.00L70.70 72.00L70.70 20.88L46.87 20.88L39.38 47.23C38.59 49.75 38.02 52.27 37.80 54.14L37.66 54.14C37.51 52.27 36.94 49.82 36.22 47.38L28.22 20.88Z"/></svg>