<svg xmlns="http://www.w3.org/2000/svg" xmlns:xlink="http://www.w3.org/1999/xlink" width="77.47200000000001" height="90.57600000000001"><path d="M19.80 36.00L4.39 36.00L4.39 72.00L20.23 72.00L20.23 53.78C20.23 48.89 22.10 46.37 25.78 46.37C29.45 46.37 31.18 48.74 31.18 53.93L31.18 72.00L47.02 72.00L47.02 53.78C47.02 48.89 48.89 46.37 52.56 46.37C56.09 46.37 57.89 48.82 57.89 53.86L57.89 72.00L73.73 72.00L73.73 50.83C73.73 40.68 68.69 34.92 59.69 34.92C53.35 34.92 48.67 37.58 45.58 43.06C43.27 37.51 39.17 34.92 33.12 34.92C26.71 34.92 22.32 37.66 19.80 43.13Z"/></svg>