<svg xmlns="http://www.w3.org/2000/svg" xmlns:xlink="http://www.w3.org/1999/xlink" width="52.776" height="90.57600000000001"><path d="M4.39 36.00L4.39 86.04L20.23 86.04L20.23 67.61C23.54 71.21 27.58 73.08 33.19 73.08C43.99 73.08 51.26 65.52 51.26 53.71C51.26 42.41 44.28 34.92 33.70 34.92C27.86 34.92 22.82 37.08 19.80 41.40L19.80 36.00ZM27.50 63.14C22.90 63.14 19.94 59.76 19.94 54.58L19.94 53.28C19.94 47.74 22.75 44.78 27.43 44.78C32.18 44.78 34.85 48.02 34.85 53.71C34.85 59.54 32.11 63.14 27.50 63.14Z"/></svg>