<svg xmlns="http://www.w3.org/2000/svg" xmlns:xlink="http://www.w3.org/1999/xlink" width="62.06400000000001" height="90.57600000000001"><path d="M45.14 70.85C54.94 66.82 60.77 58.18 60.77 46.44C60.77 29.88 49.18 19.44 31.03 19.44C12.89 19.44 1.30 29.88 1.30 46.44C1.30 63.00 12.89 73.44 31.03 73.44L32.40 73.44C35.64 80.78 42.55 85.03 53.35 85.03C55.44 85.03 57.10 84.89 58.97 84.60L58.97 72.36C57.38 72.65 56.16 72.79 54.22 72.79C51.70 72.79 48.17 72.50 45.14 70.85ZM18.36 46.44C18.36 37.37 23.26 31.75 31.03 31.75C38.81 31.75 43.70 37.37 43.70 46.44C43.70 55.51 38.81 61.13 31.03 61.13C23.26 61.13 18.36 55.51 18.36 46.44Z"/></svg>