<svg xmlns="http://www.w3.org/2000/svg" xmlns:xlink="http://www.w3.org/1999/xlink" width="68.328" height="90.57600000000001"><path d="M0.72 36.00L12.10 72.00L27.94 72.00L33.12 54.79C33.48 53.50 33.98 51.48 34.06 50.40L34.27 50.40C34.34 51.48 34.85 53.50 35.21 54.79L40.39 72.00L56.23 72.00L67.61 36.00L52.34 36.00L48.02 55.44C47.88 56.38 47.59 57.60 47.45 59.11L47.30 59.11C47.16 57.60 46.87 56.38 46.58 55.44L41.18 36.00L27.14 36.00L21.74 55.44C21.46 56.38 21.17 57.60 21.02 59.11L20.88 59.11C20.74 57.60 20.45 56.38 20.30 55.44L15.98 36.00Z"/></svg>